<svg width="35" height="35" viewBox="0 0 35 35" fill="none" xmlns="http://www.w3.org/2000/svg">
<path d="M16.5697 1.35873C16.9027 0.514584 18.0973 0.514586 18.4303 1.35873L22.5732 11.8634C22.6749 12.1211 22.8789 12.3251 23.1366 12.4268L33.6413 16.5698C34.4854 16.9027 34.4854 18.0974 33.6413 18.4303L23.1366 22.5733C22.8789 22.6749 22.6749 22.8789 22.5732 23.1366L18.4303 33.6413C18.0973 34.4854 16.9027 34.4854 16.5697 33.6413L12.4268 23.1366C12.3251 22.8789 12.1211 22.6749 11.8634 22.5733L1.35871 18.4303C0.514569 18.0974 0.514571 16.9027 1.35872 16.5698L11.8634 12.4268C12.1211 12.3251 12.3251 12.1211 12.4268 11.8634L16.5697 1.35873Z" fill="white"/>
</svg>
